<?xml version="1.0" encoding="utf-8"?>
<!-- Generator: Adobe Illustrator 19.0.0, SVG Export Plug-In . SVG Version: 6.00 Build 0)  -->
<svg version="1.1" id="Layer_1" xmlns="http://www.w3.org/2000/svg" xmlns:xlink="http://www.w3.org/1999/xlink" x="0px" y="0px"
	 viewBox="0 0 32 32" style="enable-background:new 0 0 32 32;" xml:space="preserve">
<style type="text/css">
	.st0{fill:#F6E40C;}
</style>
<rect id="XMLID_1_" width="32" height="32"/>
<g id="XMLID_654_">
	<path id="XMLID_656_" class="st0" d="M27.9,17.4c-1.1,0-2.1,0-3,0c-1.2,0-2.3,0-3.5,0c-0.5,0-0.7,0.2-0.6,0.7c0,2.1,0,4.3,0,6.4
		c0,0.5-0.2,0.8-0.6,1c-2.5,1.4-4.9,2.8-7.3,4.3c-0.4,0.2-0.6,0.2-1,0c-2.4-1.4-4.9-2.9-7.3-4.3c-0.2-0.1-0.5-0.5-0.5-0.7
		c0-3.2,0-6.4,0-9.6c0-0.1,0-0.1,0.1-0.3c0.3,0,0.5,0,0.8,0c1.9,0,3.7,0,5.6,0c0.6,0,0.7-0.2,0.7-0.7c0-2.1,0-4.2,0-6.4
		c0-0.5,0.1-0.8,0.6-1.1c2.5-1.4,4.9-2.9,7.3-4.3c0.2-0.1,0.6-0.1,0.9,0c2.5,1.4,5,2.9,7.5,4.4c0.2,0.1,0.4,0.4,0.4,0.6
		C27.9,10.6,27.9,13.9,27.9,17.4z M20.8,14.8c1.4,0,2.7,0,4,0c0.5,0,0.7-0.2,0.7-0.7c0-1.7,0-3.3,0-5c0-0.5-0.2-0.7-0.6-1
		c-1.6-0.9-3.2-1.9-4.8-2.8c-0.2-0.1-0.7-0.1-0.9,0c-1.6,0.9-3.2,1.9-4.8,2.8c-0.4,0.2-0.6,0.5-0.6,1c0,3.2,0,6.3,0,9.5
		c0,1.9,0,1.9-1.9,1.9c-0.4,0-0.6-0.1-0.6-0.6c0-0.6,0-1.3,0-1.9c0-0.5-0.2-0.6-0.6-0.6c-1.1,0-2.2,0-3.3,0c-0.5,0-0.7,0.2-0.7,0.7
		c0,1.6,0,3.3,0,4.9c0,0.5,0.2,0.8,0.6,1c1.6,0.9,3.2,1.9,4.8,2.8c0.2,0.1,0.7,0.1,0.9,0c1.6-0.9,3.2-1.9,4.8-2.8
		c0.4-0.2,0.6-0.5,0.6-1c0-3.1,0-6.1,0-9.2c0-1.9,0-1.9,1.9-1.9c0.5,0,0.7,0.2,0.7,0.7C20.8,13.3,20.8,14,20.8,14.8z"/>
	<path id="XMLID_655_" class="st0" d="M18,2.1l-6.8,3.9V2.7c0-0.3,0.3-0.6,0.6-0.6H18z"/>
</g>
</svg>
